<svg width="297" height="156" viewBox="0 0 297 156" fill="none" xmlns="http://www.w3.org/2000/svg">
<ellipse cx="148.5" cy="117.308" rx="148.5" ry="38.6507" fill="#F7F1EB"/>
<path d="M165.219 101.4C168.976 99.9546 168.791 85.5837 168.35 79.2412C172.244 78.2376 180.422 77.881 178.466 82.011C169.795 100.316 173.193 101.929 171.963 105.374C170.733 108.818 167.989 108.264 164.376 108.264C160.763 108.264 156.456 108.623 157.27 105.976C158.234 102.845 160.522 103.206 165.219 101.4Z" fill="#745646"/>
<path d="M152.482 0.523434C154.382 0.957566 156.721 4.28591 158.475 6.31186C155.91 7.66629 151.716 9.91445 149.93 10.974C149.76 11.2385 149.542 11.4303 149.266 11.5214C148.848 11.6595 149.172 11.4239 149.93 10.974C150.839 9.55914 150.366 6.06112 149.997 4.72004C149.558 3.12823 150.581 0.0893022 152.482 0.523434Z" fill="#9B735D"/>
<path d="M163.533 71.8956C162.184 68.8126 162.971 65.7939 163.533 64.6699L176.539 70.6913L181.477 83.4566C179.469 84.0587 174.974 84.9739 173.047 83.8178C171.61 82.9556 171.2 81.9952 171.167 81.3461C170.689 82.9628 167.968 82.6541 166.544 82.2523C167.025 81.9312 167.7 80.9517 166.544 79.6029C165.636 78.5441 165.609 76.0308 165.775 74.1835C165.343 75.4372 164.19 75.6913 163.533 75.6288C164.095 75.6689 164.882 74.9785 163.533 71.8956Z" fill="#B38268"/>
<path d="M193.166 96.2218C190.468 93.8133 189.954 86.3869 190.035 82.9748L194.37 84.5404L198.826 79.4824L212.675 87.9123L217.492 102.725C216.248 103.086 213.012 103.785 210.025 103.688C207.857 103.618 206.623 102.736 206.111 102.221C206.615 103.121 205.977 104.223 205.83 104.482C205.826 104.506 205.819 104.523 205.811 104.531C205.792 104.55 205.802 104.531 205.83 104.482C205.885 104.167 205.503 102.63 203.041 102.966C201.162 103.222 199.461 100.975 198.623 99.4265C198.916 100.373 198.437 101.414 198.103 101.882C198.826 100.075 196.538 99.2325 193.166 96.2218Z" fill="#B28268"/>
<path d="M201.588 102.989C204.96 103.278 213.872 101.946 216.039 99.7378C214.715 89.1402 223.337 103.327 223.144 106.12C222.904 109.613 217.364 110.817 213.631 110.817C209.897 110.817 204.358 112.864 199.782 112.864C195.205 112.864 193.158 111.781 193.158 109.854C193.158 107.927 197.373 102.628 201.588 102.989Z" fill="#745646"/>
<path d="M176.9 103.207C177.96 101.762 178.466 88.8765 178.586 82.6143L190.75 90.2012C187.98 94.5365 183.325 103.231 183.644 105.255C184.006 107.543 185.692 107.904 184.487 110.674C183.283 113.444 171.722 113.082 170.518 112.239C169.313 111.396 169.434 110.313 169.795 109.229C170.52 107.055 175.576 105.014 176.9 103.207Z" fill="#745646"/>
<path d="M177.502 82.2517C178.755 75.7005 172.806 67.3187 169.675 63.9468C177.583 65.7933 194.049 70.6184 196.65 75.1465C199.252 79.6746 195.567 86.7477 193.399 89.7182C184.921 94.8243 182.48 90.24 182.32 87.3097C181.741 88.3694 182.079 90.4006 182.32 91.2837C180.393 90.3203 179.429 86.7075 179.188 85.0215C178.803 85.8886 179.028 87.5505 179.188 88.2731C177.262 86.3462 177.262 83.456 177.502 82.2517Z" fill="#C69174"/>
<path d="M155.464 6.74396C169.53 2.50493 182.601 13.8893 187.378 20.1114C188.261 21.9178 191.568 25.5788 197.734 25.7715C205.442 26.0123 241.57 25.7715 247.471 69.9682C252.191 105.326 232.498 102.002 220.134 99.7137C206.405 90.5613 207.73 95.3784 205.201 87.7914C202.672 80.2045 186.535 80.0841 186.535 80.0841C186.535 80.0841 173.528 79.482 161.606 65.0307C150.467 51.5284 156.464 49.1699 148.459 50.1954C143.801 52.0956 137.477 56.7017 128.85 49.2548C114.76 37.0916 129.332 28.18 135.473 22.1586C141.615 16.1373 137.882 12.0428 155.464 6.74396Z" fill="#C69174"/>
<path d="M205.201 91.1631C205.49 88.9472 203.956 85.9044 203.153 84.66C217.404 84.3389 249.638 80.7341 246.748 90.0792C243.858 99.4244 236.03 106.939 226.275 108.745C227.335 108.456 227.841 106.618 227.961 105.735C224.108 109.685 219.853 108.665 218.207 107.662C219.941 106.795 218.929 102.965 218.207 101.159C218.4 102.411 216.842 104.009 216.039 104.651C216.2 103.366 215.943 100.556 213.631 99.593C211.318 98.6296 210.58 96.9436 210.5 96.221C210.596 97.7625 211.102 98.5493 211.342 98.75C208.211 98.0275 204.839 93.9329 205.201 91.1631Z" fill="#C69174"/>
<ellipse cx="156.865" cy="21.8315" rx="7.02513" ry="3.39144" transform="rotate(-29.5772 156.865 21.8315)" fill="black"/>
<ellipse cx="154.518" cy="21.2142" rx="2.65366" ry="0.847861" transform="rotate(-29.5772 154.518 21.2142)" fill="white"/>
<path d="M175.726 0C170.498 0.493763 169.273 6.62466 169.315 9.62838L179.302 17.7755C180.782 18.2692 181.028 14.8129 180.042 12.9613C179.055 11.1097 181.768 4.93763 179.302 3.57978C177.329 2.4935 176.096 0.740645 175.726 0Z" fill="#C69174"/>
<path d="M172.86 9.07086C172.024 5.85633 174.392 3.29035 175.68 2.40918C176.725 3.78381 176.934 3.57233 177.665 4.10103C179.42 5.36993 179.441 7.06178 178.814 9.7053C178.178 12.3866 179.649 12.7718 179.023 15.4153L172.86 9.07086Z" fill="#9B735D"/>
<path d="M134.486 37.4896C133.662 35.1708 126.04 35.2122 125.01 36.6615C123.98 38.1107 126.238 42.8726 128.924 42.8726C130.778 42.8726 135.516 40.3882 134.486 37.4896Z" fill="black"/>
<circle r="2.16769" transform="matrix(-1 0 0 1 141.653 77.6228)" fill="#353535"/>
<path d="M132.206 102.913C129.412 100.697 126.786 95.7279 125.823 93.52C123.856 96.6511 117.912 97.1497 118.892 99.7822C120.819 104.961 127.87 107.61 132.206 109.055C136.541 110.5 135.698 105.683 132.206 102.913Z" fill="#E8D4C9"/>
<path d="M146.108 82.9213C141.388 80.1274 140.85 75.3344 141.171 73.2872L135.752 60.6423L91.9162 58.4746L60.3642 89.5448C57.0726 93.5992 54.1201 107.439 74.3338 111.463C99.1418 116.4 111.739 105.129 118.771 100.142C125.395 95.4458 133.825 95.4458 141.171 94.6028C148.517 93.7598 152.009 86.4137 146.108 82.9213Z" fill="#F5E3D9"/>
<path d="M92.0366 66.302C92.0366 66.302 108.174 62.3279 108.174 75.2137L105.404 73.2868C106.464 74.1539 106.729 76.4581 106.729 77.5018C104.561 75.3341 97.5762 77.2609 99.3826 77.5018C100.828 77.6945 102.554 79.0272 103.236 79.6695C101.599 78.6097 100.226 78.3849 99.0214 78.8265C92.3979 75.5749 92.0366 66.302 92.0366 66.302Z" fill="#E8D4C9"/>
<circle r="2.89025" transform="matrix(-1 0 0 1 124.311 79.7906)" fill="#353535"/>
<ellipse rx="1.20427" ry="0.602136" transform="matrix(-1 0 0 1 125.034 78.2247)" fill="white"/>
<ellipse rx="3.13111" ry="2.40854" transform="matrix(-1 0 0 1 144.784 85.8119)" fill="#353535"/>
<path d="M137.919 56.9097C143.314 60.8597 141.853 69.5545 140.448 73.4082C140.448 69.1692 135.711 65.8614 133.343 64.7374L134.427 67.7481C131.633 64.9542 127.322 65.2192 125.515 65.7009L126.599 67.7481C120.53 66.2067 113.794 68.3904 111.184 69.675C106.078 61.7749 95.8099 63.7339 91.314 65.7009C90.6396 75.1424 95.8501 78.8676 98.5396 79.55C95.4567 79.55 92.438 82.0388 91.314 83.2832C95.4567 81.9345 99.3826 82.7212 100.828 83.2832C95.2399 83.7649 90.1498 87.5785 88.3033 89.425C89.363 88.5579 92.7591 88.4215 94.3246 88.4616C91.9964 89.5053 86.3524 92.4598 82.4024 95.9281C78.4523 99.3964 71.2829 102.03 68.1919 102.913C68.77 103.876 72.447 104.358 74.2133 104.478C66.506 107.754 58.0761 107.931 54.8245 107.61C52.705 102.118 54.9851 93.921 56.3901 90.5089C55.234 91.0869 53.7407 93.4794 53.1385 94.6034C52.6568 76.7802 62.6523 70.0362 61.3276 70.3975C60.2678 70.6866 56.5507 73.9702 54.8245 75.5759C58.9672 62.1844 71.4033 56.5083 77.1036 55.3441C74.3096 54.7661 71.8449 55.1033 70.9618 55.3441C79.4398 46.0953 92.157 47.8776 97.4558 49.9249C96.2033 48.4798 92.8394 47.2354 91.314 46.7938C107.114 41.1096 118.651 47.3558 123.468 52.0926C122.89 49.6841 122.384 49.5235 121.18 48.8411C130.91 50.6716 137.197 58.3548 139.124 61.9676C140.087 60.7152 138.722 58.0738 137.919 56.9097Z" fill="#463A27"/>
<path d="M54.5838 107.369C33.9907 64.9787 77.1037 51.6915 98.058 50.8887L87.5808 59.6799L54.5838 107.369Z" fill="#463A27"/>
<path d="M117.808 100.865C117.808 100.865 115.961 102.35 115.399 102.792L114.677 103.274L112.389 97.8545C115.038 103.033 117.808 100.865 117.808 100.865Z" fill="#E8D4C9"/>
<path d="M119.18 107.585C116.14 105.119 113.283 99.589 112.234 97.132C100.707 92.6763 103.505 107.085 106.126 108.693C109.403 110.703 114.462 112.812 119.18 114.42C123.898 116.028 122.981 110.668 119.18 107.585Z" fill="#F5E3D9"/>
</svg>
