<svg width="74" height="117" viewBox="0 0 74 117" fill="none" xmlns="http://www.w3.org/2000/svg">
<circle cx="37" cy="36" r="36" fill="#9BD0BF"/>
<rect x="31.2851" y="14.4644" width="32.3174" height="42.3904" rx="6" transform="rotate(8.19145 31.2851 14.4644)" fill="white"/>
<rect x="35.433" y="20.998" width="22.2445" height="31.0583" transform="rotate(8.19145 35.433 20.998)" fill="#FE8D50"/>
<path d="M41.7682 58.6111C41.7682 58.6111 47.0145 59.0311 49.9524 55.8833C52.8904 52.7355 47.4341 16.7906 47.4341 16.7906L36.7317 15.3813L29.5967 57.3523L41.7682 58.6111Z" fill="black" fill-opacity="0.11"/>
<rect x="9.8" y="21.4539" width="32.3174" height="42.3904" rx="6" transform="rotate(-15 9.8 21.4539)" fill="white"/>
<rect x="16.1857" y="25.8262" width="22.2445" height="31.0583" transform="rotate(-15 16.1857 25.8262)" fill="#FE8D50"/>
<path d="M19.41 101.74V105.07H25.242V107.41H19.41V112H16.494V99.4H26.016V101.74H19.41ZM27.9901 99.4H30.9061V112H27.9901V99.4ZM38.0363 112.216C37.0403 112.216 36.0743 112.084 35.1383 111.82C34.2143 111.544 33.4703 111.19 32.9063 110.758L33.8963 108.562C34.4363 108.958 35.0783 109.276 35.8223 109.516C36.5663 109.756 37.3103 109.876 38.0543 109.876C38.8823 109.876 39.4943 109.756 39.8903 109.516C40.2863 109.264 40.4843 108.934 40.4843 108.526C40.4843 108.226 40.3643 107.98 40.1243 107.788C39.8963 107.584 39.5963 107.422 39.2243 107.302C38.8643 107.182 38.3723 107.05 37.7483 106.906C36.7883 106.678 36.0023 106.45 35.3903 106.222C34.7783 105.994 34.2503 105.628 33.8063 105.124C33.3743 104.62 33.1583 103.948 33.1583 103.108C33.1583 102.376 33.3563 101.716 33.7523 101.128C34.1483 100.528 34.7423 100.054 35.5343 99.706C36.3383 99.358 37.3163 99.184 38.4683 99.184C39.2723 99.184 40.0583 99.28 40.8263 99.472C41.5943 99.664 42.2663 99.94 42.8423 100.3L41.9423 102.514C40.7783 101.854 39.6143 101.524 38.4503 101.524C37.6343 101.524 37.0283 101.656 36.6323 101.92C36.2483 102.184 36.0563 102.532 36.0563 102.964C36.0563 103.396 36.2783 103.72 36.7223 103.936C37.1783 104.14 37.8683 104.344 38.7923 104.548C39.7523 104.776 40.5383 105.004 41.1503 105.232C41.7623 105.46 42.2843 105.82 42.7163 106.312C43.1603 106.804 43.3823 107.47 43.3823 108.31C43.3823 109.03 43.1783 109.69 42.7703 110.29C42.3743 110.878 41.7743 111.346 40.9703 111.694C40.1663 112.042 39.1883 112.216 38.0363 112.216ZM56.9309 99.4V112H54.0149V106.834H48.2909V112H45.3749V99.4H48.2909V104.368H54.0149V99.4H56.9309Z" fill="#252526"/>
<path d="M7.596 95.216C6.288 95.216 5.106 94.934 4.05 94.37C3.006 93.806 2.184 93.032 1.584 92.048C0.996 91.052 0.702 89.936 0.702 88.7C0.702 87.464 0.996 86.354 1.584 85.37C2.184 84.374 3.006 83.594 4.05 83.03C5.106 82.466 6.288 82.184 7.596 82.184C8.904 82.184 10.08 82.466 11.124 83.03C12.168 83.594 12.99 84.374 13.59 85.37C14.19 86.354 14.49 87.464 14.49 88.7C14.49 89.936 14.19 91.052 13.59 92.048C12.99 93.032 12.168 93.806 11.124 94.37C10.08 94.934 8.904 95.216 7.596 95.216ZM7.596 92.732C8.34 92.732 9.012 92.564 9.612 92.228C10.212 91.88 10.68 91.4 11.016 90.788C11.364 90.176 11.538 89.48 11.538 88.7C11.538 87.92 11.364 87.224 11.016 86.612C10.68 86 10.212 85.526 9.612 85.19C9.012 84.842 8.34 84.668 7.596 84.668C6.852 84.668 6.18 84.842 5.58 85.19C4.98 85.526 4.506 86 4.158 86.612C3.822 87.224 3.654 87.92 3.654 88.7C3.654 89.48 3.822 90.176 4.158 90.788C4.506 91.4 4.98 91.88 5.58 92.228C6.18 92.564 6.852 92.732 7.596 92.732ZM28.2375 82.4V95H25.8435L19.5615 87.35V95H16.6815V82.4H19.0935L25.3575 90.05V82.4H28.2375ZM31.2186 82.4H34.1346V92.624H40.4526V95H31.2186V82.4ZM42.0819 82.4H44.9979V95H42.0819V82.4ZM59.5441 82.4V95H57.1501L50.8681 87.35V95H47.9881V82.4H50.4001L56.6641 90.05V82.4H59.5441ZM72.2812 92.66V95H62.5253V82.4H72.0473V84.74H65.4233V87.476H71.2733V89.744H65.4233V92.66H72.2812Z" fill="#252526"/>
</svg>
