<svg width="135" height="54" viewBox="0 0 135 54" fill="none" xmlns="http://www.w3.org/2000/svg">
<circle cx="27" cy="27" r="27" fill="#9BD0BF"/>
<rect x="22.1379" y="11.0142" width="22.7232" height="29.8057" rx="6" transform="rotate(8.19145 22.1379 11.0142)" fill="white"/>
<rect x="25.0544" y="15.6079" width="15.6406" height="21.8379" transform="rotate(8.19145 25.0544 15.6079)" fill="#FE8D50"/>
<path d="M29.5089 42.0546C29.5089 42.0546 33.1977 42.3499 35.2634 40.1366C37.3292 37.9233 33.4927 12.6495 33.4927 12.6495L25.9676 11.6586L20.9508 41.1695L29.5089 42.0546Z" fill="black" fill-opacity="0.11"/>
<rect x="7.03125" y="15.9287" width="22.7232" height="29.8057" rx="6" transform="rotate(-15 7.03125 15.9287)" fill="white"/>
<rect x="11.5212" y="19.0029" width="15.6406" height="21.8379" transform="rotate(-15 11.5212 19.0029)" fill="#FE8D50"/>
<path d="M65.41 31.74V35.07H71.242V37.41H65.41V42H62.494V29.4H72.016V31.74H65.41ZM73.9901 29.4H76.9061V42H73.9901V29.4ZM84.0363 42.216C83.0403 42.216 82.0743 42.084 81.1383 41.82C80.2143 41.544 79.4703 41.19 78.9063 40.758L79.8963 38.562C80.4363 38.958 81.0783 39.276 81.8223 39.516C82.5663 39.756 83.3103 39.876 84.0543 39.876C84.8823 39.876 85.4943 39.756 85.8903 39.516C86.2863 39.264 86.4843 38.934 86.4843 38.526C86.4843 38.226 86.3643 37.98 86.1243 37.788C85.8963 37.584 85.5963 37.422 85.2243 37.302C84.8643 37.182 84.3723 37.05 83.7483 36.906C82.7883 36.678 82.0023 36.45 81.3903 36.222C80.7783 35.994 80.2503 35.628 79.8063 35.124C79.3743 34.62 79.1583 33.948 79.1583 33.108C79.1583 32.376 79.3563 31.716 79.7523 31.128C80.1483 30.528 80.7423 30.054 81.5343 29.706C82.3383 29.358 83.3163 29.184 84.4683 29.184C85.2723 29.184 86.0583 29.28 86.8263 29.472C87.5943 29.664 88.2663 29.94 88.8423 30.3L87.9423 32.514C86.7783 31.854 85.6143 31.524 84.4503 31.524C83.6343 31.524 83.0283 31.656 82.6323 31.92C82.2483 32.184 82.0563 32.532 82.0563 32.964C82.0563 33.396 82.2783 33.72 82.7223 33.936C83.1783 34.14 83.8683 34.344 84.7923 34.548C85.7523 34.776 86.5383 35.004 87.1503 35.232C87.7623 35.46 88.2843 35.82 88.7163 36.312C89.1603 36.804 89.3823 37.47 89.3823 38.31C89.3823 39.03 89.1783 39.69 88.7703 40.29C88.3743 40.878 87.7743 41.346 86.9703 41.694C86.1663 42.042 85.1883 42.216 84.0363 42.216ZM102.931 29.4V42H100.015V36.834H94.2909V42H91.3749V29.4H94.2909V34.368H100.015V29.4H102.931Z" fill="#252526"/>
<path d="M68.596 25.216C67.288 25.216 66.106 24.934 65.05 24.37C64.006 23.806 63.184 23.032 62.584 22.048C61.996 21.052 61.702 19.936 61.702 18.7C61.702 17.464 61.996 16.354 62.584 15.37C63.184 14.374 64.006 13.594 65.05 13.03C66.106 12.466 67.288 12.184 68.596 12.184C69.904 12.184 71.08 12.466 72.124 13.03C73.168 13.594 73.99 14.374 74.59 15.37C75.19 16.354 75.49 17.464 75.49 18.7C75.49 19.936 75.19 21.052 74.59 22.048C73.99 23.032 73.168 23.806 72.124 24.37C71.08 24.934 69.904 25.216 68.596 25.216ZM68.596 22.732C69.34 22.732 70.012 22.564 70.612 22.228C71.212 21.88 71.68 21.4 72.016 20.788C72.364 20.176 72.538 19.48 72.538 18.7C72.538 17.92 72.364 17.224 72.016 16.612C71.68 16 71.212 15.526 70.612 15.19C70.012 14.842 69.34 14.668 68.596 14.668C67.852 14.668 67.18 14.842 66.58 15.19C65.98 15.526 65.506 16 65.158 16.612C64.822 17.224 64.654 17.92 64.654 18.7C64.654 19.48 64.822 20.176 65.158 20.788C65.506 21.4 65.98 21.88 66.58 22.228C67.18 22.564 67.852 22.732 68.596 22.732ZM89.2375 12.4V25H86.8435L80.5615 17.35V25H77.6815V12.4H80.0935L86.3575 20.05V12.4H89.2375ZM92.2186 12.4H95.1346V22.624H101.453V25H92.2186V12.4ZM103.082 12.4H105.998V25H103.082V12.4ZM120.544 12.4V25H118.15L111.868 17.35V25H108.988V12.4H111.4L117.664 20.05V12.4H120.544ZM133.281 22.66V25H123.525V12.4H133.047V14.74H126.423V17.476H132.273V19.744H126.423V22.66H133.281Z" fill="#252526"/>
</svg>
