<svg width="136" height="54" viewBox="0 0 136 54" fill="none" xmlns="http://www.w3.org/2000/svg">
<circle cx="27" cy="27" r="27" fill="#9BD0BF"/>
<rect x="22.1379" y="11.0142" width="22.7232" height="29.8057" rx="6" transform="rotate(8.19145 22.1379 11.0142)" fill="white"/>
<rect x="25.0544" y="15.6082" width="15.6406" height="21.8379" transform="rotate(8.19145 25.0544 15.6082)" fill="#FE8D50"/>
<path d="M29.5089 42.0546C29.5089 42.0546 33.1977 42.3499 35.2634 40.1366C37.3292 37.9233 33.4927 12.6495 33.4927 12.6495L25.9676 11.6586L20.9508 41.1695L29.5089 42.0546Z" fill="black" fill-opacity="0.11"/>
<rect x="7.03127" y="15.9287" width="22.7232" height="29.8057" rx="6" transform="rotate(-15 7.03127 15.9287)" fill="white"/>
<rect x="11.5212" y="19.0027" width="15.6406" height="21.8379" transform="rotate(-15 11.5212 19.0027)" fill="#FE8D50"/>
<path d="M66.41 31.74V35.07H72.242V37.41H66.41V42H63.494V29.4H73.016V31.74H66.41ZM74.9901 29.4H77.9061V42H74.9901V29.4ZM85.0363 42.216C84.0403 42.216 83.0743 42.084 82.1383 41.82C81.2143 41.544 80.4703 41.19 79.9063 40.758L80.8963 38.562C81.4363 38.958 82.0783 39.276 82.8223 39.516C83.5663 39.756 84.3103 39.876 85.0543 39.876C85.8823 39.876 86.4943 39.756 86.8903 39.516C87.2863 39.264 87.4843 38.934 87.4843 38.526C87.4843 38.226 87.3643 37.98 87.1243 37.788C86.8963 37.584 86.5963 37.422 86.2243 37.302C85.8643 37.182 85.3723 37.05 84.7483 36.906C83.7883 36.678 83.0023 36.45 82.3903 36.222C81.7783 35.994 81.2503 35.628 80.8063 35.124C80.3743 34.62 80.1583 33.948 80.1583 33.108C80.1583 32.376 80.3563 31.716 80.7523 31.128C81.1483 30.528 81.7423 30.054 82.5343 29.706C83.3383 29.358 84.3163 29.184 85.4683 29.184C86.2723 29.184 87.0583 29.28 87.8263 29.472C88.5943 29.664 89.2663 29.94 89.8423 30.3L88.9423 32.514C87.7783 31.854 86.6143 31.524 85.4503 31.524C84.6343 31.524 84.0283 31.656 83.6323 31.92C83.2483 32.184 83.0563 32.532 83.0563 32.964C83.0563 33.396 83.2783 33.72 83.7223 33.936C84.1783 34.14 84.8683 34.344 85.7923 34.548C86.7523 34.776 87.5383 35.004 88.1503 35.232C88.7623 35.46 89.2843 35.82 89.7163 36.312C90.1603 36.804 90.3823 37.47 90.3823 38.31C90.3823 39.03 90.1783 39.69 89.7703 40.29C89.3743 40.878 88.7743 41.346 87.9703 41.694C87.1663 42.042 86.1883 42.216 85.0363 42.216ZM103.931 29.4V42H101.015V36.834H95.2909V42H92.3749V29.4H95.2909V34.368H101.015V29.4H103.931Z" fill="#252526"/>
<path d="M69.596 25.216C68.288 25.216 67.106 24.934 66.05 24.37C65.006 23.806 64.184 23.032 63.584 22.048C62.996 21.052 62.702 19.936 62.702 18.7C62.702 17.464 62.996 16.354 63.584 15.37C64.184 14.374 65.006 13.594 66.05 13.03C67.106 12.466 68.288 12.184 69.596 12.184C70.904 12.184 72.08 12.466 73.124 13.03C74.168 13.594 74.99 14.374 75.59 15.37C76.19 16.354 76.49 17.464 76.49 18.7C76.49 19.936 76.19 21.052 75.59 22.048C74.99 23.032 74.168 23.806 73.124 24.37C72.08 24.934 70.904 25.216 69.596 25.216ZM69.596 22.732C70.34 22.732 71.012 22.564 71.612 22.228C72.212 21.88 72.68 21.4 73.016 20.788C73.364 20.176 73.538 19.48 73.538 18.7C73.538 17.92 73.364 17.224 73.016 16.612C72.68 16 72.212 15.526 71.612 15.19C71.012 14.842 70.34 14.668 69.596 14.668C68.852 14.668 68.18 14.842 67.58 15.19C66.98 15.526 66.506 16 66.158 16.612C65.822 17.224 65.654 17.92 65.654 18.7C65.654 19.48 65.822 20.176 66.158 20.788C66.506 21.4 66.98 21.88 67.58 22.228C68.18 22.564 68.852 22.732 69.596 22.732ZM90.2375 12.4V25H87.8435L81.5615 17.35V25H78.6815V12.4H81.0935L87.3575 20.05V12.4H90.2375ZM93.2186 12.4H96.1346V22.624H102.453V25H93.2186V12.4ZM104.082 12.4H106.998V25H104.082V12.4ZM121.544 12.4V25H119.15L112.868 17.35V25H109.988V12.4H112.4L118.664 20.05V12.4H121.544ZM134.281 22.66V25H124.525V12.4H134.047V14.74H127.423V17.476H133.273V19.744H127.423V22.66H134.281Z" fill="#252526"/>
</svg>
