<svg width="250" height="350" viewBox="0 0 250 350" fill="none" xmlns="http://www.w3.org/2000/svg">
<rect width="250" height="350" rx="10" fill="white"/>
<path d="M22.036 13.024H28.3L37.192 37H31.792L29.848 31.528H20.416L18.58 37H13.252L22.036 13.024ZM28.3 27.064L25.06 17.884L21.928 27.064H28.3Z" fill="#DB4437"/>
<path d="M14 58.4028L25.3691 43L37 58.4028L25.3691 74L14 58.4028Z" fill="#DB4437"/>
<path d="M227.964 336.976L221.7 336.976L212.808 313L218.208 313L220.152 318.472L229.584 318.472L231.42 313L236.748 313L227.964 336.976ZM221.7 322.936L224.94 332.116L228.072 322.936L221.7 322.936Z" fill="#DB4437"/>
<path d="M236 291.597L224.631 307L213 291.597L224.631 276L236 291.597Z" fill="#DB4437"/>
<path d="M36 174.229L124.481 52L215 174.229L124.481 298L36 174.229Z" fill="#DB4437"/>
</svg>
