<svg width="250" height="350" viewBox="0 0 250 350" fill="none" xmlns="http://www.w3.org/2000/svg">
<rect width="250" height="350" rx="10" fill="white"/>
<path d="M23.828 37.54C21.188 37.54 19.148 36.916 17.708 35.668C16.268 34.42 15.548 32.68 15.548 30.448C15.548 29.08 15.824 27.856 16.376 26.776C16.928 25.672 17.732 24.748 18.788 24.004C17.252 22.588 16.484 20.896 16.484 18.928C16.484 17.56 16.832 16.396 17.528 15.436C18.224 14.476 19.16 13.744 20.336 13.24C21.512 12.736 22.82 12.484 24.26 12.484C26.396 12.484 28.172 13.024 29.588 14.104C31.004 15.184 31.712 16.66 31.712 18.532C31.712 19.612 31.472 20.644 30.992 21.628C30.512 22.588 29.852 23.464 29.012 24.256C30.116 24.952 30.98 25.78 31.604 26.74C32.252 27.7 32.576 28.888 32.576 30.304C32.576 32.488 31.796 34.24 30.236 35.56C28.676 36.88 26.54 37.54 23.828 37.54ZM25.592 22.492C26.024 22.084 26.36 21.604 26.6 21.052C26.84 20.476 26.96 19.9 26.96 19.324C26.96 18.436 26.66 17.776 26.06 17.344C25.484 16.888 24.8 16.66 24.008 16.66C23.288 16.66 22.664 16.84 22.136 17.2C21.632 17.56 21.38 18.088 21.38 18.784C21.38 19.6 21.716 20.26 22.388 20.764C23.084 21.268 24.152 21.844 25.592 22.492ZM24.188 33.328C25.292 33.328 26.144 33.1 26.744 32.644C27.368 32.164 27.68 31.516 27.68 30.7C27.68 29.788 27.332 29.068 26.636 28.54C25.964 27.988 24.896 27.388 23.432 26.74L22.1 26.128C21.5 26.68 21.044 27.304 20.732 28C20.444 28.672 20.3 29.344 20.3 30.016C20.3 31.048 20.636 31.864 21.308 32.464C22.004 33.04 22.964 33.328 24.188 33.328Z" fill="#DB4437"/>
<path d="M14 58.4028L25.3691 43L37 58.4028L25.3691 74L14 58.4028Z" fill="#DB4437"/>
<path d="M225.172 312.46C227.812 312.46 229.852 313.084 231.292 314.332C232.732 315.58 233.452 317.32 233.452 319.552C233.452 320.92 233.176 322.144 232.624 323.224C232.072 324.328 231.268 325.252 230.212 325.996C231.748 327.412 232.516 329.104 232.516 331.072C232.516 332.44 232.168 333.604 231.472 334.564C230.776 335.524 229.84 336.256 228.664 336.76C227.488 337.264 226.18 337.516 224.74 337.516C222.604 337.516 220.828 336.976 219.412 335.896C217.996 334.816 217.288 333.34 217.288 331.468C217.288 330.388 217.528 329.356 218.008 328.372C218.488 327.412 219.148 326.536 219.988 325.744C218.884 325.048 218.02 324.22 217.396 323.26C216.748 322.3 216.424 321.112 216.424 319.696C216.424 317.512 217.204 315.76 218.764 314.44C220.324 313.12 222.46 312.46 225.172 312.46ZM223.408 327.508C222.976 327.916 222.64 328.396 222.4 328.948C222.16 329.524 222.04 330.1 222.04 330.676C222.04 331.564 222.34 332.224 222.94 332.656C223.516 333.112 224.2 333.34 224.992 333.34C225.712 333.34 226.336 333.16 226.864 332.8C227.368 332.44 227.62 331.912 227.62 331.216C227.62 330.4 227.284 329.74 226.612 329.236C225.916 328.732 224.848 328.156 223.408 327.508ZM224.812 316.672C223.708 316.672 222.856 316.9 222.256 317.356C221.632 317.836 221.32 318.484 221.32 319.3C221.32 320.212 221.668 320.932 222.364 321.46C223.036 322.012 224.104 322.612 225.568 323.26L226.9 323.872C227.5 323.32 227.956 322.696 228.268 322C228.556 321.328 228.7 320.656 228.7 319.984C228.7 318.952 228.364 318.136 227.692 317.536C226.996 316.96 226.036 316.672 224.812 316.672Z" fill="#DB4437"/>
<path d="M236 291.597L224.631 307L213 291.597L224.631 276L236 291.597Z" fill="#DB4437"/>
<path d="M44 65.3024L66.7381 34L90 65.3024L66.7381 97L44 65.3024Z" fill="#DB4437"/>
<path d="M160 65.3024L182.738 34L206 65.3024L182.738 97L160 65.3024Z" fill="#DB4437"/>
<path d="M102 120.302L124.738 89L148 120.302L124.738 152L102 120.302Z" fill="#DB4437"/>
<path d="M102 229.302L124.738 198L148 229.302L124.738 261L102 229.302Z" fill="#DB4437"/>
<path d="M44 174.302L66.7381 143L90 174.302L66.7381 206L44 174.302Z" fill="#DB4437"/>
<path d="M160 174.302L182.738 143L206 174.302L182.738 206L160 174.302Z" fill="#DB4437"/>
<path d="M44 284.302L66.7381 253L90 284.302L66.7381 316L44 284.302Z" fill="#DB4437"/>
<path d="M160 284.302L182.738 253L206 284.302L182.738 316L160 284.302Z" fill="#DB4437"/>
</svg>
