<svg width="250" height="350" viewBox="0 0 250 350" fill="none" xmlns="http://www.w3.org/2000/svg">
<rect width="250" height="350" rx="10" fill="white"/>
<path d="M18.14 37.54C16.916 37.54 15.656 37.432 14.36 37.216L15.008 32.752C16.4 32.992 17.6 33.112 18.608 33.112C20.528 33.112 22.052 32.68 23.18 31.816C24.332 30.928 24.908 29.776 24.908 28.36C24.908 27.352 24.62 26.596 24.044 26.092C23.492 25.564 22.676 25.3 21.596 25.3C20.492 25.3 19.436 25.54 18.428 26.02L16.412 24.544L17.096 13.024H29.336L29.048 17.272H21.272L21.056 21.34C21.464 21.244 21.992 21.196 22.64 21.196C24.872 21.196 26.66 21.832 28.004 23.104C29.372 24.352 30.056 26.068 30.056 28.252C30.056 30.028 29.552 31.624 28.544 33.04C27.56 34.456 26.168 35.56 24.368 36.352C22.568 37.144 20.492 37.54 18.14 37.54Z" fill="#DB4437"/>
<path d="M14 58.4028L25.3691 43L37 58.4028L25.3691 74L14 58.4028Z" fill="#DB4437"/>
<path d="M230.86 312.46C232.084 312.46 233.344 312.568 234.64 312.784L233.992 317.248C232.6 317.008 231.4 316.888 230.392 316.888C228.472 316.888 226.948 317.32 225.82 318.184C224.668 319.072 224.092 320.224 224.092 321.64C224.092 322.648 224.38 323.404 224.956 323.908C225.508 324.436 226.324 324.7 227.404 324.7C228.508 324.7 229.564 324.46 230.572 323.98L232.588 325.456L231.904 336.976L219.664 336.976L219.952 332.728L227.728 332.728L227.944 328.66C227.536 328.756 227.008 328.804 226.36 328.804C224.128 328.804 222.34 328.168 220.996 326.896C219.628 325.648 218.944 323.932 218.944 321.748C218.944 319.972 219.448 318.376 220.456 316.96C221.44 315.544 222.832 314.44 224.632 313.648C226.432 312.856 228.508 312.46 230.86 312.46Z" fill="#DB4437"/>
<path d="M236 291.597L224.631 307L213 291.597L224.631 276L236 291.597Z" fill="#DB4437"/>
<path d="M44 65.3024L66.7381 34L90 65.3024L66.7381 97L44 65.3024Z" fill="#DB4437"/>
<path d="M160 65.3024L182.738 34L206 65.3024L182.738 97L160 65.3024Z" fill="#DB4437"/>
<path d="M102 174.302L124.738 143L148 174.302L124.738 206L102 174.302Z" fill="#DB4437"/>
<path d="M44 284.302L66.7381 253L90 284.302L66.7381 316L44 284.302Z" fill="#DB4437"/>
<path d="M160 284.302L182.738 253L206 284.302L182.738 316L160 284.302Z" fill="#DB4437"/>
</svg>
