<svg width="250" height="350" viewBox="0 0 250 350" fill="none" xmlns="http://www.w3.org/2000/svg">
<rect width="250" height="350" rx="10" fill="white"/>
<path d="M25.736 31.6H15.26L14.9 27.892L25.7 13.024H30.452V27.568H33.224L32.864 31.6H30.452V37H25.736V31.6ZM25.736 27.568V19.288L20.12 27.568H25.736Z" fill="#DB4437"/>
<path d="M14 58.4028L25.3691 43L37 58.4028L25.3691 74L14 58.4028Z" fill="#DB4437"/>
<path d="M223.264 318.4L233.74 318.4L234.1 322.108L223.3 336.976L218.548 336.976L218.548 322.432L215.776 322.432L216.136 318.4L218.548 318.4L218.548 313L223.264 313L223.264 318.4ZM223.264 322.432L223.264 330.712L228.88 322.432L223.264 322.432Z" fill="#DB4437"/>
<path d="M236 291.597L224.631 307L213 291.597L224.631 276L236 291.597Z" fill="#DB4437"/>
<path d="M44 65.3024L66.7381 34L90 65.3024L66.7381 97L44 65.3024Z" fill="#DB4437"/>
<path d="M160 65.3024L182.738 34L206 65.3024L182.738 97L160 65.3024Z" fill="#DB4437"/>
<path d="M44 284.302L66.7381 253L90 284.302L66.7381 316L44 284.302Z" fill="#DB4437"/>
<path d="M160 284.302L182.738 253L206 284.302L182.738 316L160 284.302Z" fill="#DB4437"/>
</svg>
