<svg width="250" height="350" viewBox="0 0 250 350" fill="none" xmlns="http://www.w3.org/2000/svg">
<rect width="250" height="350" rx="10" fill="white"/>
<path d="M21.348 37.54C19.956 37.54 18.684 37.288 17.532 36.784L18.9 32.428C19.62 32.812 20.256 33.004 20.808 33.004C22.008 33.004 22.608 32.26 22.608 30.772V13.024H27.648V31.204C27.648 33.148 27.072 34.696 25.92 35.848C24.792 36.976 23.268 37.54 21.348 37.54Z" fill="#DB4437"/>
<path d="M14 58.4028L25.3691 43L37 58.4028L25.3691 74L14 58.4028Z" fill="#DB4437"/>
<path d="M227.652 312.46C229.044 312.46 230.316 312.712 231.468 313.216L230.1 317.572C229.38 317.188 228.744 316.996 228.192 316.996C226.992 316.996 226.392 317.74 226.392 319.228L226.392 336.976L221.352 336.976L221.352 318.796C221.352 316.852 221.928 315.304 223.08 314.152C224.208 313.024 225.732 312.46 227.652 312.46Z" fill="#DB4437"/>
<path d="M236 291.597L224.631 307L213 291.597L224.631 276L236 291.597Z" fill="#DB4437"/>
<circle cx="38.9454" cy="169.503" r="4.35607" fill="#353535"/>
<path d="M57.929 220.324C63.5435 215.871 68.8192 205.884 70.7553 201.447C74.708 207.739 86.6521 208.741 84.6837 214.031C80.8117 224.438 66.6412 229.762 57.929 232.666C49.2169 235.57 50.9109 225.89 57.929 220.324Z" fill="#E8D4C9"/>
<path d="M29.9914 180.151C39.4779 174.536 40.5589 164.905 39.9135 160.791L50.8037 135.38L138.893 131.024L202.298 193.461C208.913 201.609 214.846 229.421 174.226 237.506C124.373 247.428 99.0588 224.779 84.9263 214.757C71.6161 205.319 54.6758 205.319 39.9135 203.625C25.1513 201.931 18.1332 187.169 29.9914 180.151Z" fill="#F5E3D9"/>
<path d="M138.651 146.754C138.651 146.754 106.223 138.768 106.223 164.663L111.789 160.791C109.659 162.533 109.127 167.163 109.127 169.261C113.483 164.905 127.519 168.777 123.889 169.261C120.985 169.648 117.516 172.326 116.145 173.617C119.436 171.487 122.195 171.035 124.615 171.923C137.925 165.389 138.651 146.754 138.651 146.754Z" fill="#E8D4C9"/>
<circle cx="73.7939" cy="173.859" r="5.8081" fill="#353535"/>
<ellipse cx="72.3424" cy="170.713" rx="2.42004" ry="1.21002" fill="white"/>
<ellipse cx="32.6534" cy="185.959" rx="6.29211" ry="4.84008" fill="#353535"/>
<path d="M46.448 127.878C35.6062 135.816 38.5425 153.288 41.3659 161.033C41.3659 152.514 50.8847 145.867 55.6441 143.608L53.4661 149.658C59.0806 144.044 67.7444 144.576 71.3744 145.544L69.1964 149.658C81.3934 146.561 94.9295 150.949 100.173 153.53C110.434 137.655 131.069 141.592 140.104 145.544C141.459 164.517 130.988 172.003 125.583 173.375C131.779 173.375 137.845 178.376 140.104 180.877C131.779 178.166 123.889 179.748 120.985 180.877C132.214 181.845 142.443 189.508 146.154 193.219C144.024 191.477 137.2 191.202 134.053 191.283C138.732 193.38 150.074 199.318 158.012 206.287C165.95 213.257 180.357 218.549 186.568 220.324C185.407 222.26 178.018 223.228 174.468 223.47C189.956 230.052 206.897 230.407 213.431 229.762C217.69 218.726 213.108 202.254 210.285 195.397C212.608 196.559 215.609 201.367 216.819 203.625C217.787 167.809 197.701 154.256 200.363 154.982C202.492 155.563 209.962 162.162 213.431 165.389C205.106 138.478 180.115 127.071 168.66 124.732C174.275 123.57 179.228 124.248 181.002 124.732C163.965 106.146 138.41 109.728 127.761 113.842C130.278 110.938 137.038 108.437 140.104 107.55C108.353 96.127 85.1686 108.679 75.4885 118.198C76.6501 113.358 77.6665 113.035 80.0866 111.664C60.5326 115.342 47.9 130.782 44.0279 138.042C42.0919 135.525 44.8346 130.217 46.448 127.878Z" fill="#DB4437"/>
<path d="M213.915 229.278C255.297 144.092 168.66 117.391 126.551 115.778L147.606 133.444L213.915 229.278Z" fill="#DB4437"/>
<path d="M86.8623 216.21C86.8623 216.21 90.5732 219.194 91.7025 220.082L93.1545 221.05L97.7526 210.159C92.4285 220.566 86.8623 216.21 86.8623 216.21Z" fill="#E8D4C9"/>
<path d="M84.104 229.713C90.214 224.758 95.9553 213.645 98.0622 208.707C121.227 199.753 115.604 228.708 110.337 231.94C103.752 235.979 93.5851 240.217 84.104 243.448C74.6229 246.68 76.4665 235.908 84.104 229.713Z" fill="#F5E3D9"/>
<path d="M58.0402 188.495C56.2599 176.366 43.6575 176.446 37.5789 178.002C35.8159 180.518 34.899 187.991 45.3348 197.756C55.7706 207.521 68.2909 200.693 73.2466 196.058C68.9196 198.591 59.8204 200.624 58.0402 188.495Z" fill="#818181"/>
<path d="M19.953 181.851C23.4951 173.048 33.3104 175.346 37.7753 177.595C38.7036 179.799 38.0921 185.58 28.2187 191.069C18.3453 196.558 9.79214 189.201 6.74976 184.836C9.67501 187.509 16.411 190.653 19.953 181.851Z" fill="#818181"/>
</svg>
