<svg width="250" height="350" viewBox="0 0 250 350" fill="none" xmlns="http://www.w3.org/2000/svg">
<rect width="250" height="350" rx="10" fill="white"/>
<path d="M18.348 37.54C16.956 37.54 15.684 37.288 14.532 36.784L15.9 32.428C16.62 32.812 17.256 33.004 17.808 33.004C19.008 33.004 19.608 32.26 19.608 30.772V13.024H24.648V31.204C24.648 33.148 24.072 34.696 22.92 35.848C21.792 36.976 20.268 37.54 18.348 37.54ZM40.5201 37.468C38.1681 37.468 36.0921 36.952 34.2921 35.92C32.4921 34.888 31.0881 33.436 30.0801 31.564C29.0961 29.692 28.6041 27.544 28.6041 25.12C28.6041 22.672 29.0961 20.512 30.0801 18.64C31.0641 16.768 32.4561 15.316 34.2561 14.284C36.0561 13.252 38.1441 12.736 40.5201 12.736C42.8721 12.736 44.9481 13.252 46.7481 14.284C48.5481 15.292 49.9401 16.72 50.9241 18.568C51.9081 20.416 52.4001 22.552 52.4001 24.976C52.4001 27.448 51.9081 29.632 50.9241 31.528C49.9401 33.4 48.5481 34.864 46.7481 35.92C44.9481 36.952 42.8721 37.468 40.5201 37.468ZM40.5201 32.896C42.4881 32.896 44.0601 32.188 45.2361 30.772C46.4361 29.356 47.0361 27.472 47.0361 25.12C47.0361 23.584 46.7601 22.228 46.2081 21.052C45.6801 19.852 44.9121 18.94 43.9041 18.316C42.9201 17.668 41.7921 17.344 40.5201 17.344C39.2481 17.344 38.1081 17.668 37.1001 18.316C36.1161 18.94 35.3481 19.852 34.7961 21.052C34.2681 22.228 34.0041 23.584 34.0041 25.12C34.0041 26.656 34.2681 28.012 34.7961 29.188C35.3481 30.364 36.1161 31.276 37.1001 31.924C38.0841 32.572 39.2241 32.896 40.5201 32.896ZM56.3677 13.024H61.5877V22.312L69.3997 13.024H75.6277L65.7637 24.4L75.1237 37H68.7877L61.5877 27.316V37H56.3677V13.024ZM78.5161 13.024H93.0961V17.56H83.6641V22.348H91.4761V26.74H83.6641V32.464H93.0961V37H78.5161V13.024ZM97.4619 13.024C98.1819 13 99.5259 12.988 101.494 12.988C103.486 12.988 104.842 13 105.562 13.024C108.298 13.12 110.338 13.792 111.682 15.04C113.026 16.264 113.698 17.92 113.698 20.008C113.698 21.784 113.242 23.296 112.33 24.544C111.442 25.768 110.194 26.572 108.586 26.956C109.09 27.364 109.606 27.928 110.134 28.648C110.662 29.344 111.394 30.436 112.33 31.924C113.314 33.484 114.31 35.176 115.318 37H109.27L105.202 29.44C104.77 28.648 104.374 28.156 104.014 27.964C103.678 27.748 103.162 27.64 102.466 27.64V37H97.4619V13.024ZM104.698 23.644C105.922 23.644 106.882 23.332 107.578 22.708C108.298 22.084 108.658 21.244 108.658 20.188C108.658 19.228 108.346 18.496 107.722 17.992C107.098 17.488 106.186 17.236 104.986 17.236H102.466V23.644H104.698Z" fill="black"/>
<path d="M231.652 312.46C233.044 312.46 234.316 312.712 235.468 313.216L234.1 317.572C233.38 317.188 232.744 316.996 232.192 316.996C230.992 316.996 230.392 317.74 230.392 319.228L230.392 336.976L225.352 336.976L225.352 318.796C225.352 316.852 225.928 315.304 227.08 314.152C228.208 313.024 229.732 312.46 231.652 312.46ZM209.48 312.532C211.832 312.532 213.908 313.048 215.708 314.08C217.508 315.112 218.912 316.564 219.92 318.436C220.904 320.308 221.396 322.456 221.396 324.88C221.396 327.328 220.904 329.488 219.92 331.36C218.936 333.232 217.544 334.684 215.744 335.716C213.944 336.748 211.856 337.264 209.48 337.264C207.128 337.264 205.052 336.748 203.252 335.716C201.452 334.708 200.06 333.28 199.076 331.432C198.092 329.584 197.6 327.448 197.6 325.024C197.6 322.552 198.092 320.368 199.076 318.472C200.06 316.6 201.452 315.136 203.252 314.08C205.052 313.048 207.128 312.532 209.48 312.532ZM209.48 317.104C207.512 317.104 205.94 317.812 204.764 319.228C203.564 320.644 202.964 322.528 202.964 324.88C202.964 326.416 203.24 327.772 203.792 328.948C204.32 330.148 205.088 331.06 206.096 331.684C207.08 332.332 208.208 332.656 209.48 332.656C210.752 332.656 211.892 332.332 212.9 331.684C213.884 331.06 214.652 330.148 215.204 328.948C215.732 327.772 215.996 326.416 215.996 324.88C215.996 323.344 215.732 321.988 215.204 320.812C214.652 319.636 213.884 318.724 212.9 318.076C211.916 317.428 210.776 317.104 209.48 317.104ZM193.632 336.976L188.412 336.976L188.412 327.688L180.6 336.976L174.372 336.976L184.236 325.6L174.876 313L181.212 313L188.412 322.684L188.412 313L193.632 313L193.632 336.976ZM171.484 336.976L156.904 336.976L156.904 332.44L166.336 332.44L166.336 327.652L158.524 327.652L158.524 323.26L166.336 323.26L166.336 317.536L156.904 317.536L156.904 313L171.484 313L171.484 336.976ZM152.538 336.976C151.818 337 150.474 337.012 148.506 337.012C146.514 337.012 145.158 337 144.438 336.976C141.702 336.88 139.662 336.208 138.318 334.96C136.974 333.736 136.302 332.08 136.302 329.992C136.302 328.216 136.758 326.704 137.67 325.456C138.558 324.232 139.806 323.428 141.414 323.044C140.91 322.636 140.394 322.072 139.866 321.352C139.338 320.656 138.606 319.564 137.67 318.076C136.686 316.516 135.69 314.824 134.682 313L140.73 313L144.798 320.56C145.23 321.352 145.626 321.844 145.986 322.036C146.322 322.252 146.838 322.36 147.534 322.36L147.534 313L152.538 313L152.538 336.976ZM145.302 326.356C144.078 326.356 143.118 326.668 142.422 327.292C141.702 327.916 141.342 328.756 141.342 329.812C141.342 330.772 141.654 331.504 142.278 332.008C142.902 332.512 143.814 332.764 145.014 332.764L147.534 332.764L147.534 326.356L145.302 326.356Z" fill="black"/>
<path d="M133.375 250.378C138.268 250.797 151.197 248.864 154.342 245.66C152.42 230.285 164.931 250.867 164.651 254.921C164.302 259.988 156.264 261.735 150.848 261.735C145.431 261.735 137.394 264.706 130.754 264.706C124.115 264.706 121.145 263.133 121.145 260.337C121.145 257.542 127.26 249.854 133.375 250.378Z" fill="#4E392E"/>
<path d="M97.6237 260.378C103.075 258.282 102.807 237.431 102.167 228.229C107.816 226.773 119.682 226.256 116.844 232.248C104.263 258.806 109.193 261.147 107.409 266.144C105.624 271.142 101.643 270.338 96.401 270.338C91.1591 270.338 84.9099 270.859 86.0918 267.018C87.4898 262.475 90.8094 262.999 97.6237 260.378Z" fill="#4E392E"/>
<path d="M79.1431 114.02C81.9002 114.65 85.2935 119.479 87.8385 122.418C84.1166 124.383 78.0328 127.645 75.4414 129.182C75.1948 129.566 74.8781 129.844 74.4772 129.976C73.8705 130.177 74.3412 129.835 75.4414 129.182C76.7603 127.129 76.0737 122.054 75.5377 120.108C74.9014 117.799 76.386 113.39 79.1431 114.02Z" fill="#9B735D"/>
<path d="M95.1782 217.571C93.2213 213.098 94.3628 208.718 95.1782 207.087L114.049 215.824L121.212 234.344C118.3 235.218 111.777 236.546 108.981 234.869C106.897 233.618 106.302 232.224 106.255 231.282C105.56 233.628 101.613 233.18 99.5463 232.597C100.245 232.131 101.224 230.71 99.5463 228.753C98.2296 227.217 98.1905 223.571 98.4318 220.89C97.8045 222.709 96.1309 223.078 95.1782 222.987C95.9936 223.046 97.1351 222.044 95.1782 217.571Z" fill="#B38268"/>
<path d="M138.17 252.865C134.256 249.371 133.511 238.596 133.627 233.646L139.917 235.917L146.382 228.578L166.476 240.809L173.465 262.3C171.659 262.825 166.965 263.838 162.632 263.698C159.486 263.597 157.696 262.317 156.953 261.569C157.683 262.875 156.757 264.474 156.545 264.85C156.538 264.885 156.529 264.909 156.516 264.921C156.489 264.948 156.504 264.921 156.545 264.85C156.624 264.393 156.071 262.163 152.498 262.65C149.773 263.022 147.304 259.762 146.088 257.515C146.513 258.889 145.819 260.399 145.334 261.077C146.382 258.457 143.063 257.233 138.17 252.865Z" fill="#B28268"/>
<path d="M150.39 262.684C155.282 263.103 168.212 261.169 171.357 257.966C169.435 242.59 181.945 263.173 181.666 267.227C181.316 272.294 173.279 274.041 167.862 274.041C162.446 274.041 154.409 277.011 147.769 277.011C141.13 277.011 138.159 275.439 138.159 272.643C138.159 269.848 144.275 262.16 150.39 262.684Z" fill="#745646"/>
<path d="M114.572 262.999C116.109 260.903 116.843 242.207 117.018 233.121L134.665 244.129C130.647 250.419 123.893 263.034 124.356 265.97C124.881 269.289 127.327 269.814 125.579 273.832C123.832 277.851 107.059 277.327 105.311 276.104C103.564 274.881 103.739 273.308 104.263 271.736C105.314 268.582 112.65 265.62 114.572 262.999Z" fill="#745646"/>
<path d="M115.446 232.597C117.263 223.092 108.632 210.931 104.089 206.039C115.562 208.718 139.453 215.719 143.227 222.289C147.001 228.858 141.655 239.12 138.51 243.43C126.209 250.839 122.668 244.187 122.435 239.936C121.596 241.473 122.086 244.42 122.435 245.702C119.639 244.304 118.242 239.062 117.892 236.616C117.333 237.874 117.659 240.285 117.892 241.334C115.097 238.538 115.097 234.345 115.446 232.597Z" fill="#C69174"/>
<path d="M83.4709 123.044C103.879 116.894 122.842 133.411 129.773 142.439C131.054 145.06 135.853 150.371 144.799 150.651C155.982 151 208.399 150.651 216.961 214.775C223.81 266.075 195.237 261.252 177.298 257.932C157.38 244.653 159.302 251.642 155.632 240.635C151.963 229.627 128.55 229.452 128.55 229.452C128.55 229.452 109.68 228.579 92.3818 207.611C76.2198 188.021 84.9207 184.599 73.3065 186.087C66.5486 188.844 57.3727 195.527 44.8566 184.722C24.4137 167.075 45.5555 154.146 54.4665 145.409C63.3775 136.673 57.961 130.732 83.4709 123.044Z" fill="#C69174"/>
<path d="M155.632 245.527C156.052 242.312 153.827 237.897 152.662 236.092C173.338 235.626 220.106 230.396 215.913 243.954C211.719 257.513 200.362 268.416 186.209 271.037C187.747 270.617 188.481 267.95 188.656 266.669C183.064 272.4 176.891 270.92 174.503 269.464C177.019 268.206 175.551 262.65 174.503 260.029C174.782 261.846 172.523 264.164 171.358 265.096C171.591 263.232 171.218 259.155 167.863 257.758C164.508 256.36 163.437 253.914 163.32 252.865C163.46 255.102 164.194 256.243 164.543 256.535C160.001 255.486 155.108 249.546 155.632 245.527Z" fill="#C69174"/>
<ellipse cx="85.5032" cy="144.935" rx="10.1926" ry="4.92057" transform="rotate(-29.5772 85.5032 144.935)" fill="black"/>
<ellipse cx="82.0972" cy="144.039" rx="3.85014" ry="1.23014" transform="rotate(-29.5772 82.0972 144.039)" fill="white"/>
<path d="M112.869 113.26C105.283 113.976 103.506 122.871 103.566 127.229L118.057 139.05C120.203 139.766 120.561 134.751 119.13 132.065C117.699 129.379 121.634 120.424 118.057 118.454C115.194 116.878 113.405 114.334 112.869 113.26Z" fill="#C69174"/>
<path d="M108.709 126.42C107.497 121.756 110.932 118.033 112.801 116.754C114.317 118.749 114.62 118.442 115.681 119.209C118.227 121.05 118.257 123.505 117.348 127.34C116.425 131.23 118.56 131.789 117.651 135.625L108.709 126.42Z" fill="#9B735D"/>
<path d="M53.0324 167.652C51.8369 164.288 40.7782 164.348 39.2839 166.45C37.7896 168.553 41.0657 175.462 44.9626 175.462C47.6525 175.462 54.5268 171.857 53.0324 167.652Z" fill="black"/>
<path d="M93.6839 103.98C85.5466 81.0555 93.9324 66.2954 99.1424 61.7809C67.2251 66.7487 63.3534 95.2286 65.4072 108.848C78.2233 116.777 101.821 126.905 93.6839 103.98Z" fill="#494949"/>
<path d="M126.891 84.3532C86.2704 73.1635 80.7205 105.746 83.0231 123.436L107.732 118.56C106.801 96.4949 120.117 86.5617 126.891 84.3532Z" fill="#6A6A6A"/>
<path d="M30.1601 102.492C64.9774 79.4573 82.353 104.79 86.6887 120.336L60.417 128.135C56.4749 110.087 38.6032 103.52 30.1601 102.492Z" fill="#8F8F8F"/>
<circle cx="27.3648" cy="105.183" r="7.46248" transform="rotate(-11.1639 27.3648 105.183)" fill="#FFCE70"/>
<circle cx="99.0972" cy="61.5521" r="7.46248" transform="rotate(-11.1639 99.0972 61.5521)" fill="#FFCE70"/>
<circle cx="129.038" cy="85.5936" r="7.46248" transform="rotate(-11.1639 129.038 85.5936)" fill="#FFCE70"/>
<path d="M106.455 124.575C74.8954 126.042 69.1784 131.914 62.3116 135.828L53.8404 124.917L62.8895 127.41L62.3116 120.868L68.9826 123.355L69.1784 118.324L77.4478 121.684L79.0163 116.383L86.1418 119.968L89.3119 114.351L94.6071 118.298L97.5483 112.726L103.662 118.412L111.27 112.395L106.455 124.575Z" fill="#FFCE70"/>
</svg>
