<svg width="250" height="350" viewBox="0 0 250 350" fill="none" xmlns="http://www.w3.org/2000/svg">
<rect width="250" height="350" rx="10" fill="white"/>
<path d="M15.52 13.024H20.74V22.312L28.552 13.024H34.78L24.916 24.4L34.276 37H27.94L20.74 27.316V37H15.52V13.024Z" fill="#DB4437"/>
<path d="M14 58.4028L25.3691 43L37 58.4028L25.3691 74L14 58.4028Z" fill="#DB4437"/>
<path d="M234.48 336.976L229.26 336.976L229.26 327.688L221.448 336.976L215.22 336.976L225.084 325.6L215.724 313L222.06 313L229.26 322.684L229.26 313L234.48 313L234.48 336.976Z" fill="#DB4437"/>
<path d="M236 291.597L224.631 307L213 291.597L224.631 276L236 291.597Z" fill="#DB4437"/>
<circle cx="38.946" cy="169.061" r="4.35617" fill="#353535"/>
<path d="M57.9306 219.883C63.5453 215.43 68.8211 205.443 70.7571 201.007C74.71 207.299 86.6544 208.301 84.6859 213.591C80.8138 223.997 66.643 229.322 57.9306 232.226C49.2183 235.13 50.9124 225.45 57.9306 219.883Z" fill="#E8D4C9"/>
<path d="M29.9915 179.71C39.4783 174.095 40.5592 164.463 39.9139 160.349L50.8043 134.938L138.896 130.582L202.302 193.02C208.917 201.168 214.85 228.981 174.229 237.066C124.375 246.988 99.0604 224.339 84.9277 214.317C71.6171 204.879 54.6765 204.879 39.9139 203.185C25.1513 201.491 18.133 186.728 29.9915 179.71Z" fill="#F5E3D9"/>
<path d="M138.654 146.312C138.654 146.312 106.225 138.326 106.225 164.221L111.791 160.349C109.661 162.091 109.129 166.722 109.129 168.819C113.485 164.463 127.521 168.335 123.891 168.819C120.987 169.207 117.518 171.885 116.147 173.176C119.438 171.046 122.197 170.594 124.617 171.481C137.928 164.947 138.654 146.312 138.654 146.312Z" fill="#E8D4C9"/>
<circle cx="73.795" cy="173.417" r="5.80823" fill="#353535"/>
<ellipse cx="72.3434" cy="170.271" rx="2.42009" ry="1.21005" fill="white"/>
<ellipse cx="32.6536" cy="185.518" rx="6.29225" ry="4.84019" fill="#353535"/>
<path d="M46.4481 127.436C35.6061 135.374 38.5425 152.847 41.3659 160.591C41.3659 152.072 50.885 145.425 55.6445 143.166L53.4664 149.217C59.0811 143.602 67.745 144.134 71.3751 145.102L69.197 149.217C81.3943 146.119 94.9307 150.507 100.174 153.089C110.435 137.213 131.071 141.15 140.106 145.102C141.461 164.076 130.99 171.562 125.585 172.934C131.781 172.934 137.847 177.935 140.106 180.436C131.781 177.725 123.891 179.306 120.987 180.436C132.216 181.404 142.445 189.067 146.156 192.778C144.026 191.036 137.202 190.762 134.056 190.842C138.734 192.94 150.077 198.877 158.015 205.847C165.952 212.817 180.36 218.109 186.572 219.883C185.41 221.819 178.021 222.787 174.471 223.029C189.96 229.612 206.9 229.967 213.435 229.322C217.694 218.286 213.112 201.813 210.289 194.956C212.612 196.118 215.613 200.926 216.823 203.185C217.791 167.367 197.704 153.815 200.366 154.541C202.496 155.122 209.966 161.72 213.435 164.947C205.11 138.036 180.118 126.629 168.663 124.29C174.278 123.128 179.231 123.806 181.005 124.29C163.968 105.703 138.412 109.285 127.763 113.399C130.28 110.495 137.04 107.994 140.106 107.107C108.354 95.6841 85.1697 108.236 75.4893 117.755C76.6509 112.915 77.6674 112.592 80.0875 111.221C60.5331 114.9 47.9002 130.34 44.0281 137.6C42.092 135.083 44.8348 129.775 46.4481 127.436Z" fill="#DB4437"/>
<path d="M213.919 228.838C255.302 143.65 168.663 116.949 126.553 115.335L147.608 133.002L213.919 228.838Z" fill="#DB4437"/>
<path d="M86.8638 215.769C86.8638 215.769 90.5747 218.754 91.7041 219.641L93.1561 220.609L97.7543 209.719C92.4301 220.125 86.8638 215.769 86.8638 215.769Z" fill="#E8D4C9"/>
<path d="M84.1056 229.273C90.2158 224.318 95.9572 213.204 98.0641 208.267C121.229 199.313 115.606 228.268 110.339 231.5C103.755 235.539 93.5869 239.777 84.1056 243.008C74.6243 246.24 76.4679 235.468 84.1056 229.273Z" fill="#F5E3D9"/>
<path d="M140.164 139.827C131.882 129.921 121.045 124.096 105.329 120.466L107.793 90.1889L119.953 108.981L142.725 92.6209L142.725 117.825L162.18 118.93L140.164 139.827Z" fill="#FFC34E"/>
<circle cx="107.977" cy="90.2146" r="1.69407" fill="#FFC34E"/>
<circle cx="142.826" cy="92.1506" r="1.69407" fill="#FFC34E"/>
<circle cx="162.671" cy="118.772" r="1.69407" fill="#FFC34E"/>
</svg>
