<svg width="250" height="350" viewBox="0 0 250 350" fill="none" xmlns="http://www.w3.org/2000/svg">
<rect width="250" height="350" rx="10" fill="white"/>
<path d="M21.2 37.576C20.048 37.576 18.896 37.444 17.744 37.18L17.924 33.004C19.196 33.172 20.18 33.256 20.876 33.256C22.556 33.256 23.864 32.824 24.8 31.96C25.736 31.096 26.36 29.668 26.672 27.676C25.04 28.228 23.552 28.504 22.208 28.504C20.096 28.504 18.464 27.856 17.312 26.56C16.184 25.264 15.62 23.452 15.62 21.124C15.62 18.388 16.376 16.264 17.888 14.752C19.424 13.24 21.476 12.484 24.044 12.484C26.564 12.484 28.496 13.324 29.84 15.004C31.208 16.66 31.892 19.396 31.892 23.212C31.892 27.58 30.992 31.072 29.192 33.688C27.392 36.28 24.728 37.576 21.2 37.576ZM23.252 24.436C24.212 24.436 25.448 24.136 26.96 23.536C27.008 22.672 27.032 22.084 27.032 21.772C27.032 20.236 26.732 19.012 26.132 18.1C25.532 17.164 24.668 16.696 23.54 16.696C22.604 16.696 21.86 17.032 21.308 17.704C20.78 18.376 20.516 19.384 20.516 20.728C20.516 23.2 21.428 24.436 23.252 24.436Z" fill="#DB4437"/>
<path d="M14 58.4028L25.3691 43L37 58.4028L25.3691 74L14 58.4028Z" fill="#DB4437"/>
<path d="M227.8 312.424C228.952 312.424 230.104 312.556 231.256 312.82L231.076 316.996C229.804 316.828 228.82 316.744 228.124 316.744C226.444 316.744 225.136 317.176 224.2 318.04C223.264 318.904 222.64 320.332 222.328 322.324C223.96 321.772 225.448 321.496 226.792 321.496C228.904 321.496 230.536 322.144 231.688 323.44C232.816 324.736 233.38 326.548 233.38 328.876C233.38 331.612 232.624 333.736 231.112 335.248C229.576 336.76 227.524 337.516 224.956 337.516C222.436 337.516 220.504 336.676 219.16 334.996C217.792 333.34 217.108 330.604 217.108 326.788C217.108 322.42 218.008 318.928 219.808 316.312C221.608 313.72 224.272 312.424 227.8 312.424ZM225.748 325.564C224.788 325.564 223.552 325.864 222.04 326.464C221.992 327.328 221.968 327.916 221.968 328.228C221.968 329.764 222.268 330.988 222.868 331.9C223.468 332.836 224.332 333.304 225.46 333.304C226.396 333.304 227.14 332.968 227.692 332.296C228.22 331.624 228.484 330.616 228.484 329.272C228.484 326.8 227.572 325.564 225.748 325.564Z" fill="#DB4437"/>
<path d="M236 291.597L224.631 307L213 291.597L224.631 276L236 291.597Z" fill="#DB4437"/>
<path d="M44 65.3024L66.7381 34L90 65.3024L66.7381 97L44 65.3024Z" fill="#DB4437"/>
<path d="M160 65.3024L182.738 34L206 65.3024L182.738 97L160 65.3024Z" fill="#DB4437"/>
<path d="M102 174.302L124.738 143L148 174.302L124.738 206L102 174.302Z" fill="#DB4437"/>
<path d="M44 138.302L66.7381 107L90 138.302L66.7381 170L44 138.302Z" fill="#DB4437"/>
<path d="M160 138.302L182.738 107L206 138.302L182.738 170L160 138.302Z" fill="#DB4437"/>
<path d="M44 211.302L66.7381 180L90 211.302L66.7381 243L44 211.302Z" fill="#DB4437"/>
<path d="M160 211.302L182.738 180L206 211.302L182.738 243L160 211.302Z" fill="#DB4437"/>
<path d="M44 284.302L66.7381 253L90 284.302L66.7381 316L44 284.302Z" fill="#DB4437"/>
<path d="M160 284.302L182.738 253L206 284.302L182.738 316L160 284.302Z" fill="#DB4437"/>
</svg>
