<svg width="250" height="350" viewBox="0 0 250 350" fill="none" xmlns="http://www.w3.org/2000/svg">
<rect width="250" height="350" rx="10" fill="white"/>
<path d="M30.244 36.964C29.068 37.324 27.772 37.504 26.356 37.504C24.004 37.504 21.928 36.988 20.128 35.956C18.328 34.924 16.924 33.472 15.916 31.6C14.932 29.728 14.44 27.58 14.44 25.156C14.44 22.708 14.932 20.548 15.916 18.676C16.9 16.804 18.292 15.352 20.092 14.32C21.892 13.288 23.98 12.772 26.356 12.772C28.708 12.772 30.784 13.276 32.584 14.284C34.384 15.292 35.776 16.732 36.76 18.604C37.744 20.452 38.236 22.588 38.236 25.012C38.236 26.836 37.948 28.528 37.372 30.088C36.82 31.624 36.028 32.944 34.996 34.048L38.344 35.776L37.804 40.708L30.244 36.964ZM26.608 29.656L30.316 31.6C31.132 30.928 31.756 30.04 32.188 28.936C32.644 27.832 32.872 26.572 32.872 25.156C32.872 23.596 32.596 22.228 32.044 21.052C31.516 19.852 30.748 18.94 29.74 18.316C28.756 17.668 27.628 17.344 26.356 17.344C25.084 17.344 23.944 17.668 22.936 18.316C21.952 18.964 21.184 19.888 20.632 21.088C20.104 22.264 19.84 23.62 19.84 25.156C19.84 27.484 20.428 29.356 21.604 30.772C22.78 32.188 24.34 32.908 26.284 32.932L26.608 29.656Z" fill="#DB4437"/>
<path d="M14 58.4028L25.3691 43L37 58.4028L25.3691 74L14 58.4028Z" fill="#DB4437"/>
<path d="M219.756 313.036C220.932 312.676 222.228 312.496 223.644 312.496C225.996 312.496 228.072 313.012 229.872 314.044C231.672 315.076 233.076 316.528 234.084 318.4C235.068 320.272 235.56 322.42 235.56 324.844C235.56 327.292 235.068 329.452 234.084 331.324C233.1 333.196 231.708 334.648 229.908 335.68C228.108 336.712 226.02 337.228 223.644 337.228C221.292 337.228 219.216 336.724 217.416 335.716C215.616 334.708 214.224 333.268 213.24 331.396C212.256 329.548 211.764 327.412 211.764 324.988C211.764 323.164 212.052 321.472 212.628 319.912C213.18 318.376 213.972 317.056 215.004 315.952L211.656 314.224L212.196 309.292L219.756 313.036ZM223.392 320.344L219.684 318.4C218.868 319.072 218.244 319.96 217.812 321.064C217.356 322.168 217.128 323.428 217.128 324.844C217.128 326.404 217.404 327.772 217.956 328.948C218.484 330.148 219.252 331.06 220.26 331.684C221.244 332.332 222.372 332.656 223.644 332.656C224.916 332.656 226.056 332.332 227.064 331.684C228.048 331.036 228.816 330.112 229.368 328.912C229.896 327.736 230.16 326.38 230.16 324.844C230.16 322.516 229.572 320.644 228.396 319.228C227.22 317.812 225.66 317.092 223.716 317.068L223.392 320.344Z" fill="#DB4437"/>
<path d="M236 291.597L224.631 307L213 291.597L224.631 276L236 291.597Z" fill="#DB4437"/>
<circle cx="38.9459" cy="169.059" r="4.35608" fill="#353535"/>
<path d="M57.93 219.88C63.5445 215.427 68.8202 205.44 70.7562 201.004C74.709 207.296 86.6531 208.298 84.6847 213.588C80.8127 223.994 66.6422 229.318 57.93 232.222C49.2179 235.126 50.9119 225.446 57.93 219.88Z" fill="#E8D4C9"/>
<path d="M29.9914 179.707C39.4779 174.093 40.5589 164.461 39.9135 160.347L50.8037 134.936L138.893 130.58L202.298 193.018C208.913 201.165 214.846 228.978 174.226 237.062C124.373 246.984 99.0588 224.335 84.9263 214.314C71.6161 204.876 54.6758 204.876 39.9135 203.182C25.1513 201.488 18.1332 186.725 29.9914 179.707Z" fill="#F5E3D9"/>
<path d="M138.651 146.311C138.651 146.311 106.223 138.325 106.223 164.219L111.789 160.347C109.659 162.089 109.127 166.72 109.127 168.817C113.483 164.461 127.519 168.333 123.889 168.817C120.985 169.204 117.516 171.882 116.145 173.173C119.436 171.044 122.195 170.592 124.615 171.479C137.925 164.945 138.651 146.311 138.651 146.311Z" fill="#E8D4C9"/>
<circle cx="73.7944" cy="173.415" r="5.8081" fill="#353535"/>
<ellipse cx="72.3424" cy="170.269" rx="2.42004" ry="1.21002" fill="white"/>
<ellipse cx="32.6539" cy="185.515" rx="6.29211" ry="4.84008" fill="#353535"/>
<path d="M46.448 127.434C35.6062 135.372 38.5425 152.845 41.3659 160.589C41.3659 152.07 50.8847 145.423 55.6442 143.165L53.4661 149.215C59.0806 143.6 67.7444 144.133 71.3744 145.101L69.1964 149.215C81.3934 146.117 94.9295 150.506 100.173 153.087C110.434 137.211 131.069 141.148 140.104 145.101C141.459 164.074 130.988 171.56 125.583 172.931C131.779 172.931 137.845 177.933 140.104 180.433C131.779 177.723 123.889 179.304 120.985 180.433C132.214 181.401 142.443 189.065 146.154 192.776C144.024 191.033 137.2 190.759 134.054 190.84C138.732 192.937 150.074 198.874 158.012 205.844C165.95 212.814 180.357 218.105 186.568 219.88C185.407 221.816 178.018 222.784 174.468 223.026C189.957 229.609 206.897 229.964 213.431 229.318C217.69 218.283 213.108 201.81 210.285 194.954C212.608 196.115 215.609 200.923 216.819 203.182C217.787 167.365 197.701 153.813 200.363 154.539C202.492 155.12 209.962 161.718 213.431 164.945C205.106 138.034 180.115 126.628 168.66 124.288C174.275 123.127 179.228 123.804 181.002 124.288C163.965 105.702 138.41 109.284 127.761 113.398C130.278 110.494 137.038 107.993 140.104 107.106C108.353 95.6835 85.1687 108.235 75.4885 117.754C76.6501 112.914 77.6665 112.592 80.0866 111.22C60.5326 114.899 47.9 130.339 44.0279 137.599C42.0919 135.082 44.8346 129.774 46.448 127.434Z" fill="#DB4437"/>
<path d="M213.915 228.834C255.298 143.649 168.66 116.948 126.551 115.334L147.606 133.001L213.915 228.834Z" fill="#DB4437"/>
<path d="M86.8628 215.766C86.8628 215.766 90.5737 218.751 91.703 219.638L93.155 220.606L97.7531 209.716C92.429 220.122 86.8628 215.766 86.8628 215.766Z" fill="#E8D4C9"/>
<path d="M84.104 229.27C90.214 224.315 95.9553 213.201 98.0622 208.264C121.227 199.31 115.604 228.264 110.337 231.496C103.753 235.536 93.5851 239.773 84.104 243.005C74.6229 246.236 76.4665 235.464 84.104 229.27Z" fill="#F5E3D9"/>
<path d="M140.162 139.825C131.88 129.92 121.044 124.095 105.327 120.465L107.792 90.1886L119.951 108.981L142.722 92.6205L142.722 117.824L162.178 118.929L140.162 139.825Z" fill="#FFC34E"/>
<circle cx="107.975" cy="90.2142" r="1.69403" fill="#FFC34E"/>
<circle cx="142.824" cy="92.1503" r="1.69403" fill="#FFC34E"/>
<circle cx="162.668" cy="118.771" r="1.69403" fill="#FFC34E"/>
<path d="M154.452 128.059C150.348 123.988 136.204 127.066 129.646 129.114L127.971 134.944C135.99 149.384 132.983 152.563 137.351 153.437C147.976 150.812 156.749 136.221 154.452 128.059Z" fill="#463A27"/>
<path d="M105.229 110.994C110.93 110.279 120.157 121.309 124.058 126.914L122.922 132.192C107.834 138.704 106.522 142.833 102.561 140.867C95.8194 132.334 98.455 116.036 105.229 110.994Z" fill="#463A27"/>
<path d="M123.049 129.706C119.797 128.672 113.572 126.301 114.68 125.097C115.788 123.893 120.721 127.668 123.049 129.706Z" fill="black"/>
<path d="M129.731 131.819C132.809 133.277 138.931 135.9 138.792 134.738C138.652 133.576 132.693 132.308 129.731 131.819Z" fill="black"/>
<path d="M104.302 133.653C105.407 131.446 115.968 131.245 121.68 132.712C115.668 134.447 104.67 140.404 104.217 140.029C103.652 139.56 102.92 136.412 104.302 133.653Z" fill="black"/>
<path d="M141.441 147.258C142.414 144.456 134.122 138.166 129.855 135.372C131.978 141.29 136.572 152.068 137.097 152.054C137.753 152.037 140.223 150.761 141.441 147.258Z" fill="black"/>
<path d="M123.777 126.611C125.279 125.78 130.021 127.379 131.488 129.767C132.437 131.312 130.654 135.375 128.801 136.331C126.614 137.46 121.677 135.151 121.09 133.175C120.747 132.019 121.212 130.25 121.958 128.816C122.486 127.802 123.154 126.955 123.777 126.611Z" fill="#463A27"/>
<g filter="url(#filter0_f)">
<ellipse cx="91.5192" cy="190.646" rx="5.5661" ry="5.32409" fill="#FFBCBC"/>
</g>
<defs>
<filter id="filter0_f" x="60.9531" y="160.322" width="61.1322" height="60.6482" filterUnits="userSpaceOnUse" color-interpolation-filters="sRGB">
<feFlood flood-opacity="0" result="BackgroundImageFix"/>
<feBlend mode="normal" in="SourceGraphic" in2="BackgroundImageFix" result="shape"/>
<feGaussianBlur stdDeviation="12.5" result="effect1_foregroundBlur"/>
</filter>
</defs>
</svg>
