<svg width="250" height="350" viewBox="0 0 250 350" fill="none" xmlns="http://www.w3.org/2000/svg">
<rect width="250" height="350" rx="10" fill="white"/>
<path d="M16.844 36.64L24.836 17.308H14.936L15.296 13.024H29.768V16.84L22.136 37.72L16.844 36.64Z" fill="#DB4437"/>
<path d="M14 58.4028L25.3691 43L37 58.4028L25.3691 74L14 58.4028Z" fill="#DB4437"/>
<path d="M232.156 313.36L224.164 332.692L234.064 332.692L233.704 336.976L219.232 336.976L219.232 333.16L226.864 312.28L232.156 313.36Z" fill="#DB4437"/>
<path d="M236 291.597L224.631 307L213 291.597L224.631 276L236 291.597Z" fill="#DB4437"/>
<path d="M44 65.3024L66.7381 34L90 65.3024L66.7381 97L44 65.3024Z" fill="#DB4437"/>
<path d="M160 65.3024L182.738 34L206 65.3024L182.738 97L160 65.3024Z" fill="#DB4437"/>
<path d="M102 120.302L124.738 89L148 120.302L124.738 152L102 120.302Z" fill="#DB4437"/>
<path d="M44 174.302L66.7381 143L90 174.302L66.7381 206L44 174.302Z" fill="#DB4437"/>
<path d="M160 174.302L182.738 143L206 174.302L182.738 206L160 174.302Z" fill="#DB4437"/>
<path d="M44 284.302L66.7381 253L90 284.302L66.7381 316L44 284.302Z" fill="#DB4437"/>
<path d="M160 284.302L182.738 253L206 284.302L182.738 316L160 284.302Z" fill="#DB4437"/>
</svg>
