<svg width="258" height="358" viewBox="0 0 258 358" fill="none" xmlns="http://www.w3.org/2000/svg">
<g filter="url(#filter0_d)">
<rect x="4" width="250" height="350" rx="10" fill="white"/>
<path d="M27.468 37.576C24.948 37.576 23.004 36.748 21.636 35.092C20.292 33.412 19.62 30.664 19.62 26.848C19.62 22.48 20.52 19 22.32 16.408C24.12 13.792 26.784 12.484 30.312 12.484C31.464 12.484 32.616 12.616 33.768 12.88L33.588 17.056C32.34 16.888 31.356 16.804 30.636 16.804C28.956 16.804 27.648 17.236 26.712 18.1C25.776 18.964 25.152 20.392 24.84 22.384C26.472 21.832 27.96 21.556 29.304 21.556C31.416 21.556 33.036 22.204 34.164 23.5C35.316 24.796 35.892 26.608 35.892 28.936C35.892 31.672 35.124 33.796 33.588 35.308C32.076 36.82 30.036 37.576 27.468 37.576ZM27.972 33.364C28.908 33.364 29.64 33.028 30.168 32.356C30.72 31.684 30.996 30.676 30.996 29.332C30.996 26.86 30.084 25.624 28.26 25.624C27.3 25.624 26.064 25.924 24.552 26.524C24.504 27.388 24.48 27.976 24.48 28.288C24.48 29.824 24.78 31.06 25.38 31.996C25.98 32.908 26.844 33.364 27.972 33.364Z" fill="#DB4437"/>
<path d="M18 58.4028L29.3691 43L41 58.4028L29.3691 74L18 58.4028Z" fill="#DB4437"/>
<path d="M229.532 312.424C232.052 312.424 233.996 313.252 235.364 314.908C236.708 316.588 237.38 319.336 237.38 323.152C237.38 327.52 236.48 331 234.68 333.592C232.88 336.208 230.216 337.516 226.688 337.516C225.536 337.516 224.384 337.384 223.232 337.12L223.412 332.944C224.66 333.112 225.644 333.196 226.364 333.196C228.044 333.196 229.352 332.764 230.288 331.9C231.224 331.036 231.848 329.608 232.16 327.616C230.528 328.168 229.04 328.444 227.696 328.444C225.584 328.444 223.964 327.796 222.836 326.5C221.684 325.204 221.108 323.392 221.108 321.064C221.108 318.328 221.876 316.204 223.412 314.692C224.924 313.18 226.964 312.424 229.532 312.424ZM229.028 316.636C228.092 316.636 227.36 316.972 226.832 317.644C226.28 318.316 226.004 319.324 226.004 320.668C226.004 323.14 226.916 324.376 228.74 324.376C229.7 324.376 230.936 324.076 232.448 323.476C232.496 322.612 232.52 322.024 232.52 321.712C232.52 320.176 232.22 318.94 231.62 318.004C231.02 317.092 230.156 316.636 229.028 316.636Z" fill="#DB4437"/>
<path d="M240 291.597L228.631 307L217 291.597L228.631 276L240 291.597Z" fill="#DB4437"/>
<path d="M48 65.3024L70.7381 34L94 65.3024L70.7381 97L48 65.3024Z" fill="#DB4437"/>
<path d="M164 65.3024L186.738 34L210 65.3024L186.738 97L164 65.3024Z" fill="#DB4437"/>
<path d="M48 174.302L70.7381 143L94 174.302L70.7381 206L48 174.302Z" fill="#DB4437"/>
<path d="M164 174.302L186.738 143L210 174.302L186.738 206L164 174.302Z" fill="#DB4437"/>
<path d="M48 284.302L70.7381 253L94 284.302L70.7381 316L48 284.302Z" fill="#DB4437"/>
<path d="M164 284.302L186.738 253L210 284.302L186.738 316L164 284.302Z" fill="#DB4437"/>
</g>
<defs>
<filter id="filter0_d" x="0" y="0" width="258" height="358" filterUnits="userSpaceOnUse" color-interpolation-filters="sRGB">
<feFlood flood-opacity="0" result="BackgroundImageFix"/>
<feColorMatrix in="SourceAlpha" type="matrix" values="0 0 0 0 0 0 0 0 0 0 0 0 0 0 0 0 0 0 127 0"/>
<feOffset dy="4"/>
<feGaussianBlur stdDeviation="2"/>
<feColorMatrix type="matrix" values="0 0 0 0 0 0 0 0 0 0 0 0 0 0 0 0 0 0 0.25 0"/>
<feBlend mode="normal" in2="BackgroundImageFix" result="effect1_dropShadow"/>
<feBlend mode="normal" in="SourceGraphic" in2="effect1_dropShadow" result="shape"/>
</filter>
</defs>
</svg>
