<svg width="250" height="350" viewBox="0 0 250 350" fill="none" xmlns="http://www.w3.org/2000/svg">
<rect width="250" height="350" rx="10" fill="white"/>
<path d="M23.468 37.576C20.948 37.576 19.004 36.748 17.636 35.092C16.292 33.412 15.62 30.664 15.62 26.848C15.62 22.48 16.52 19 18.32 16.408C20.12 13.792 22.784 12.484 26.312 12.484C27.464 12.484 28.616 12.616 29.768 12.88L29.588 17.056C28.34 16.888 27.356 16.804 26.636 16.804C24.956 16.804 23.648 17.236 22.712 18.1C21.776 18.964 21.152 20.392 20.84 22.384C22.472 21.832 23.96 21.556 25.304 21.556C27.416 21.556 29.036 22.204 30.164 23.5C31.316 24.796 31.892 26.608 31.892 28.936C31.892 31.672 31.124 33.796 29.588 35.308C28.076 36.82 26.036 37.576 23.468 37.576ZM23.972 33.364C24.908 33.364 25.64 33.028 26.168 32.356C26.72 31.684 26.996 30.676 26.996 29.332C26.996 26.86 26.084 25.624 24.26 25.624C23.3 25.624 22.064 25.924 20.552 26.524C20.504 27.388 20.48 27.976 20.48 28.288C20.48 29.824 20.78 31.06 21.38 31.996C21.98 32.908 22.844 33.364 23.972 33.364Z" fill="#DB4437"/>
<path d="M14 58.4028L25.3691 43L37 58.4028L25.3691 74L14 58.4028Z" fill="#DB4437"/>
<path d="M225.532 312.424C228.052 312.424 229.996 313.252 231.364 314.908C232.708 316.588 233.38 319.336 233.38 323.152C233.38 327.52 232.48 331 230.68 333.592C228.88 336.208 226.216 337.516 222.688 337.516C221.536 337.516 220.384 337.384 219.232 337.12L219.412 332.944C220.66 333.112 221.644 333.196 222.364 333.196C224.044 333.196 225.352 332.764 226.288 331.9C227.224 331.036 227.848 329.608 228.16 327.616C226.528 328.168 225.04 328.444 223.696 328.444C221.584 328.444 219.964 327.796 218.836 326.5C217.684 325.204 217.108 323.392 217.108 321.064C217.108 318.328 217.876 316.204 219.412 314.692C220.924 313.18 222.964 312.424 225.532 312.424ZM225.028 316.636C224.092 316.636 223.36 316.972 222.832 317.644C222.28 318.316 222.004 319.324 222.004 320.668C222.004 323.14 222.916 324.376 224.74 324.376C225.7 324.376 226.936 324.076 228.448 323.476C228.496 322.612 228.52 322.024 228.52 321.712C228.52 320.176 228.22 318.94 227.62 318.004C227.02 317.092 226.156 316.636 225.028 316.636Z" fill="#DB4437"/>
<path d="M236 291.597L224.631 307L213 291.597L224.631 276L236 291.597Z" fill="#DB4437"/>
<path d="M44 65.3024L66.7381 34L90 65.3024L66.7381 97L44 65.3024Z" fill="#DB4437"/>
<path d="M160 65.3024L182.738 34L206 65.3024L182.738 97L160 65.3024Z" fill="#DB4437"/>
<path d="M44 174.302L66.7381 143L90 174.302L66.7381 206L44 174.302Z" fill="#DB4437"/>
<path d="M160 174.302L182.738 143L206 174.302L182.738 206L160 174.302Z" fill="#DB4437"/>
<path d="M44 284.302L66.7381 253L90 284.302L66.7381 316L44 284.302Z" fill="#DB4437"/>
<path d="M160 284.302L182.738 253L206 284.302L182.738 316L160 284.302Z" fill="#DB4437"/>
</svg>
