<svg width="250" height="350" viewBox="0 0 250 350" fill="none" xmlns="http://www.w3.org/2000/svg">
<rect width="250" height="350" rx="10" fill="white"/>
<path d="M8.8 32.644H12.94V19.54L8.728 17.848V16.084L15.208 12.844H17.98V32.644H21.976L21.616 37H8.44L8.8 32.644ZM33.3332 37.54C30.4292 37.54 28.1852 36.472 26.6012 34.336C25.0172 32.176 24.2252 29.068 24.2252 25.012C24.2252 20.956 25.0172 17.86 26.6012 15.724C28.1852 13.588 30.4292 12.52 33.3332 12.52C36.2372 12.52 38.4812 13.6 40.0652 15.76C41.6492 17.896 42.4412 20.992 42.4412 25.048C42.4412 29.104 41.6492 32.2 40.0652 34.336C38.4812 36.472 36.2372 37.54 33.3332 37.54ZM33.3332 33.004C34.5812 33.004 35.5532 32.32 36.2492 30.952C36.9452 29.56 37.2932 27.604 37.2932 25.084C37.2932 22.564 36.9452 20.596 36.2492 19.18C35.5532 17.74 34.5812 17.02 33.3332 17.02C32.0852 17.02 31.1132 17.716 30.4172 19.108C29.7212 20.476 29.3732 22.42 29.3732 24.94C29.3732 27.46 29.7212 29.44 30.4172 30.88C31.1132 32.296 32.0852 33.004 33.3332 33.004Z" fill="#DB4437"/>
<path d="M14 58.4028L25.3691 43L37 58.4028L25.3691 74L14 58.4028Z" fill="#DB4437"/>
<path d="M241.2 317.356L237.06 317.356L237.06 330.46L241.272 332.152L241.272 333.916L234.792 337.156L232.02 337.156L232.02 317.356L228.024 317.356L228.384 313L241.56 313L241.2 317.356ZM216.667 312.46C219.571 312.46 221.815 313.528 223.399 315.664C224.983 317.824 225.775 320.932 225.775 324.988C225.775 329.044 224.983 332.14 223.399 334.276C221.815 336.412 219.571 337.48 216.667 337.48C213.763 337.48 211.519 336.4 209.935 334.24C208.351 332.104 207.559 329.008 207.559 324.952C207.559 320.896 208.351 317.8 209.935 315.664C211.519 313.528 213.763 312.46 216.667 312.46ZM216.667 316.996C215.419 316.996 214.447 317.68 213.751 319.048C213.055 320.44 212.707 322.396 212.707 324.916C212.707 327.436 213.055 329.404 213.751 330.82C214.447 332.26 215.419 332.98 216.667 332.98C217.915 332.98 218.887 332.284 219.583 330.892C220.279 329.524 220.627 327.58 220.627 325.06C220.627 322.54 220.279 320.56 219.583 319.12C218.887 317.704 217.915 316.996 216.667 316.996Z" fill="#DB4437"/>
<path d="M236 291.597L224.631 307L213 291.597L224.631 276L236 291.597Z" fill="#DB4437"/>
<path d="M44 65.3024L66.7381 34L90 65.3024L66.7381 97L44 65.3024Z" fill="#DB4437"/>
<path d="M160 65.3024L182.738 34L206 65.3024L182.738 97L160 65.3024Z" fill="#DB4437"/>
<path d="M102 99.3024L124.738 68L148 99.3024L124.738 131L102 99.3024Z" fill="#DB4437"/>
<path d="M102 252.302L124.738 221L148 252.302L124.738 284L102 252.302Z" fill="#DB4437"/>
<path d="M44 138.302L66.7381 107L90 138.302L66.7381 170L44 138.302Z" fill="#DB4437"/>
<path d="M160 138.302L182.738 107L206 138.302L182.738 170L160 138.302Z" fill="#DB4437"/>
<path d="M44 211.302L66.7381 180L90 211.302L66.7381 243L44 211.302Z" fill="#DB4437"/>
<path d="M160 211.302L182.738 180L206 211.302L182.738 243L160 211.302Z" fill="#DB4437"/>
<path d="M44 284.302L66.7381 253L90 284.302L66.7381 316L44 284.302Z" fill="#DB4437"/>
<path d="M160 284.302L182.738 253L206 284.302L182.738 316L160 284.302Z" fill="#DB4437"/>
</svg>
