<svg width="250" height="350" viewBox="0 0 250 350" fill="none" xmlns="http://www.w3.org/2000/svg">
<rect width="250" height="350" rx="10" fill="white"/>
<path d="M17.924 37.54C16.7 37.54 15.44 37.432 14.144 37.216L14.792 32.752C16.184 32.992 17.384 33.112 18.392 33.112C20.312 33.112 21.848 32.704 23 31.888C24.152 31.072 24.728 30.004 24.728 28.684C24.728 27.844 24.488 27.184 24.008 26.704C23.528 26.224 22.856 25.984 21.992 25.984C21.392 25.984 20.732 26.104 20.012 26.344L19.292 22.888C20.444 22.528 21.488 21.94 22.424 21.124C23.384 20.284 23.864 19.444 23.864 18.604C23.864 18.076 23.66 17.656 23.252 17.344C22.868 17.008 22.34 16.84 21.668 16.84C20.996 16.84 20.3 17.032 19.58 17.416C18.86 17.776 18.188 18.292 17.564 18.964L14.54 15.652C15.548 14.668 16.7 13.9 17.996 13.348C19.316 12.772 20.684 12.484 22.1 12.484C23.42 12.484 24.584 12.724 25.592 13.204C26.6 13.66 27.38 14.308 27.932 15.148C28.484 15.964 28.76 16.888 28.76 17.92C28.76 19.648 27.98 21.256 26.42 22.744C27.548 23.272 28.4 24.04 28.976 25.048C29.576 26.032 29.876 27.16 29.876 28.432C29.876 30.136 29.372 31.684 28.364 33.076C27.38 34.468 25.976 35.56 24.152 36.352C22.328 37.144 20.252 37.54 17.924 37.54Z" fill="#DB4437"/>
<path d="M14 58.4028L25.3691 43L37 58.4028L25.3691 74L14 58.4028Z" fill="#DB4437"/>
<path d="M231.076 312.46C232.3 312.46 233.56 312.568 234.856 312.784L234.208 317.248C232.816 317.008 231.616 316.888 230.608 316.888C228.688 316.888 227.152 317.296 226 318.112C224.848 318.928 224.272 319.996 224.272 321.316C224.272 322.156 224.512 322.816 224.992 323.296C225.472 323.776 226.144 324.016 227.008 324.016C227.608 324.016 228.268 323.896 228.988 323.656L229.708 327.112C228.556 327.472 227.512 328.06 226.576 328.876C225.616 329.716 225.136 330.556 225.136 331.396C225.136 331.924 225.34 332.344 225.748 332.656C226.132 332.992 226.66 333.16 227.332 333.16C228.004 333.16 228.7 332.968 229.42 332.584C230.14 332.224 230.812 331.708 231.436 331.036L234.46 334.348C233.452 335.332 232.3 336.1 231.004 336.652C229.684 337.228 228.316 337.516 226.9 337.516C225.58 337.516 224.416 337.276 223.408 336.796C222.4 336.34 221.62 335.692 221.068 334.852C220.516 334.036 220.24 333.112 220.24 332.08C220.24 330.352 221.02 328.744 222.58 327.256C221.452 326.728 220.6 325.96 220.024 324.952C219.424 323.968 219.124 322.84 219.124 321.568C219.124 319.864 219.628 318.316 220.636 316.924C221.62 315.532 223.024 314.44 224.848 313.648C226.672 312.856 228.748 312.46 231.076 312.46Z" fill="#DB4437"/>
<path d="M236 291.597L224.631 307L213 291.597L224.631 276L236 291.597Z" fill="#DB4437"/>
<path d="M102 65.3024L124.738 34L148 65.3024L124.738 97L102 65.3024Z" fill="#DB4437"/>
<path d="M102 174.302L124.738 143L148 174.302L124.738 206L102 174.302Z" fill="#DB4437"/>
<path d="M102 284.302L124.738 253L148 284.302L124.738 316L102 284.302Z" fill="#DB4437"/>
</svg>
