<svg width="250" height="350" viewBox="0 0 250 350" fill="none" xmlns="http://www.w3.org/2000/svg">
<rect width="250" height="350" rx="10" fill="white"/>
<path d="M15.728 33.22C18.368 30.388 20.336 28.228 21.632 26.74C22.952 25.228 23.936 23.932 24.584 22.852C25.232 21.748 25.556 20.752 25.556 19.864C25.556 19.048 25.304 18.4 24.8 17.92C24.32 17.44 23.684 17.2 22.892 17.2C21.38 17.2 19.988 18.1 18.716 19.9L15.008 17.272C16.112 15.664 17.372 14.464 18.788 13.672C20.228 12.88 21.776 12.484 23.432 12.484C24.824 12.484 26.072 12.76 27.176 13.312C28.28 13.84 29.144 14.62 29.768 15.652C30.416 16.66 30.74 17.848 30.74 19.216C30.74 21.112 30.08 23.044 28.76 25.012C27.464 26.98 25.34 29.428 22.388 32.356H30.776L30.38 37H15.728V33.22Z" fill="#DB4437"/>
<path d="M14 58.4028L25.3691 43L37 58.4028L25.3691 74L14 58.4028Z" fill="#DB4437"/>
<path d="M233.272 316.78C230.632 319.612 228.664 321.772 227.368 323.26C226.048 324.772 225.064 326.068 224.416 327.148C223.768 328.252 223.444 329.248 223.444 330.136C223.444 330.952 223.696 331.6 224.2 332.08C224.68 332.56 225.316 332.8 226.108 332.8C227.62 332.8 229.012 331.9 230.284 330.1L233.992 332.728C232.888 334.336 231.628 335.536 230.212 336.328C228.772 337.12 227.224 337.516 225.568 337.516C224.176 337.516 222.928 337.24 221.824 336.688C220.72 336.16 219.856 335.38 219.232 334.348C218.584 333.34 218.26 332.152 218.26 330.784C218.26 328.888 218.92 326.956 220.24 324.988C221.536 323.02 223.66 320.572 226.612 317.644L218.224 317.644L218.62 313L233.272 313L233.272 316.78Z" fill="#DB4437"/>
<path d="M236 291.597L224.631 307L213 291.597L224.631 276L236 291.597Z" fill="#DB4437"/>
<path d="M102 65.3024L124.738 34L148 65.3024L124.738 97L102 65.3024Z" fill="#DB4437"/>
<path d="M102 284.302L124.738 253L148 284.302L124.738 316L102 284.302Z" fill="#DB4437"/>
</svg>
